<mxfile host="app.diagrams.net" modified="2021-10-16T17:54:56.056Z" agent="5.0 (Windows NT 10.0; Win64; x64) AppleWebKit/537.36 (KHTML, like Gecko) Chrome/94.0.4606.81 Safari/537.36" etag="VsYLSIbb6lwH0rm3LhVP" version="15.5.4" type="github">
  <diagram id="C5RBs43oDa-KdzZeNtuy" name="Page-1">
    <mxGraphModel dx="2062" dy="1075" grid="1" gridSize="10" guides="1" tooltips="1" connect="1" arrows="1" fold="1" page="1" pageScale="1" pageWidth="1169" pageHeight="1654" math="0" shadow="0">
      <root>
        <mxCell id="WIyWlLk6GJQsqaUBKTNV-0" />
        <mxCell id="WIyWlLk6GJQsqaUBKTNV-1" parent="WIyWlLk6GJQsqaUBKTNV-0" />
        <mxCell id="YX1euxC9QidEwxVQ3Ve3-2" value="" style="shape=flexArrow;endArrow=classic;html=1;rounded=0;" edge="1" parent="WIyWlLk6GJQsqaUBKTNV-1">
          <mxGeometry width="50" height="50" relative="1" as="geometry">
            <mxPoint x="349.5" y="470" as="sourcePoint" />
            <mxPoint x="349.5" y="560" as="targetPoint" />
          </mxGeometry>
        </mxCell>
        <mxCell id="YX1euxC9QidEwxVQ3Ve3-4" value="" style="endArrow=classic;html=1;rounded=0;" edge="1" parent="WIyWlLk6GJQsqaUBKTNV-1">
          <mxGeometry width="50" height="50" relative="1" as="geometry">
            <mxPoint x="352.5" y="670" as="sourcePoint" />
            <mxPoint x="352" y="700" as="targetPoint" />
          </mxGeometry>
        </mxCell>
        <mxCell id="YX1euxC9QidEwxVQ3Ve3-12" value="" style="shape=flexArrow;endArrow=classic;startArrow=classic;html=1;rounded=0;endWidth=10;endSize=3.67;startWidth=10;startSize=3.67;" edge="1" parent="WIyWlLk6GJQsqaUBKTNV-1">
          <mxGeometry width="100" height="100" relative="1" as="geometry">
            <mxPoint x="450" y="420" as="sourcePoint" />
            <mxPoint x="610" y="420" as="targetPoint" />
          </mxGeometry>
        </mxCell>
        <mxCell id="YX1euxC9QidEwxVQ3Ve3-14" value="Login" style="shape=cube;whiteSpace=wrap;html=1;boundedLbl=1;backgroundOutline=1;darkOpacity=0.05;darkOpacity2=0.1;" vertex="1" parent="WIyWlLk6GJQsqaUBKTNV-1">
          <mxGeometry x="292.5" y="570" width="120" height="80" as="geometry" />
        </mxCell>
        <mxCell id="YX1euxC9QidEwxVQ3Ve3-16" value="&lt;span&gt;Base de datos&lt;/span&gt;" style="shape=cube;whiteSpace=wrap;html=1;boundedLbl=1;backgroundOutline=1;darkOpacity=0.05;darkOpacity2=0.1;" vertex="1" parent="WIyWlLk6GJQsqaUBKTNV-1">
          <mxGeometry x="290" y="720" width="120" height="80" as="geometry" />
        </mxCell>
        <mxCell id="YX1euxC9QidEwxVQ3Ve3-17" value="&lt;span&gt;Interfaz de usuario&lt;/span&gt;" style="shape=cube;whiteSpace=wrap;html=1;boundedLbl=1;backgroundOutline=1;darkOpacity=0.05;darkOpacity2=0.1;" vertex="1" parent="WIyWlLk6GJQsqaUBKTNV-1">
          <mxGeometry x="293" y="375" width="120" height="80" as="geometry" />
        </mxCell>
        <mxCell id="YX1euxC9QidEwxVQ3Ve3-18" value="&lt;span&gt;Menu&lt;/span&gt;" style="shape=cube;whiteSpace=wrap;html=1;boundedLbl=1;backgroundOutline=1;darkOpacity=0.05;darkOpacity2=0.1;" vertex="1" parent="WIyWlLk6GJQsqaUBKTNV-1">
          <mxGeometry x="650" y="380" width="120" height="80" as="geometry" />
        </mxCell>
        <mxCell id="YX1euxC9QidEwxVQ3Ve3-19" value="" style="shape=flexArrow;endArrow=classic;html=1;rounded=0;" edge="1" parent="WIyWlLk6GJQsqaUBKTNV-1">
          <mxGeometry width="50" height="50" relative="1" as="geometry">
            <mxPoint x="644" y="460" as="sourcePoint" />
            <mxPoint x="564" y="540" as="targetPoint" />
          </mxGeometry>
        </mxCell>
        <mxCell id="YX1euxC9QidEwxVQ3Ve3-20" value="" style="shape=flexArrow;endArrow=classic;html=1;rounded=0;" edge="1" parent="WIyWlLk6GJQsqaUBKTNV-1">
          <mxGeometry width="50" height="50" relative="1" as="geometry">
            <mxPoint x="810" y="419.5" as="sourcePoint" />
            <mxPoint x="910" y="419.5" as="targetPoint" />
            <Array as="points">
              <mxPoint x="910" y="419.5" />
            </Array>
          </mxGeometry>
        </mxCell>
        <mxCell id="YX1euxC9QidEwxVQ3Ve3-21" value="CatÃ¡logo" style="shape=cube;whiteSpace=wrap;html=1;boundedLbl=1;backgroundOutline=1;darkOpacity=0.05;darkOpacity2=0.1;" vertex="1" parent="WIyWlLk6GJQsqaUBKTNV-1">
          <mxGeometry x="500" y="560" width="120" height="80" as="geometry" />
        </mxCell>
        <mxCell id="YX1euxC9QidEwxVQ3Ve3-23" value="" style="endArrow=classic;html=1;rounded=0;" edge="1" parent="WIyWlLk6GJQsqaUBKTNV-1">
          <mxGeometry width="50" height="50" relative="1" as="geometry">
            <mxPoint x="560" y="660" as="sourcePoint" />
            <mxPoint x="559.5" y="690" as="targetPoint" />
          </mxGeometry>
        </mxCell>
        <mxCell id="YX1euxC9QidEwxVQ3Ve3-24" value="Xbox" style="shape=cube;whiteSpace=wrap;html=1;boundedLbl=1;backgroundOutline=1;darkOpacity=0.05;darkOpacity2=0.1;" vertex="1" parent="WIyWlLk6GJQsqaUBKTNV-1">
          <mxGeometry x="500" y="710" width="120" height="80" as="geometry" />
        </mxCell>
        <mxCell id="YX1euxC9QidEwxVQ3Ve3-25" value="&lt;span&gt;PS4/PS5&lt;/span&gt;" style="shape=cube;whiteSpace=wrap;html=1;boundedLbl=1;backgroundOutline=1;darkOpacity=0.05;darkOpacity2=0.1;" vertex="1" parent="WIyWlLk6GJQsqaUBKTNV-1">
          <mxGeometry x="500" y="860" width="120" height="80" as="geometry" />
        </mxCell>
        <mxCell id="YX1euxC9QidEwxVQ3Ve3-26" value="&lt;span&gt;PC&lt;/span&gt;" style="shape=cube;whiteSpace=wrap;html=1;boundedLbl=1;backgroundOutline=1;darkOpacity=0.05;darkOpacity2=0.1;" vertex="1" parent="WIyWlLk6GJQsqaUBKTNV-1">
          <mxGeometry x="500" y="1010" width="120" height="80" as="geometry" />
        </mxCell>
        <mxCell id="YX1euxC9QidEwxVQ3Ve3-27" value="" style="endArrow=classic;html=1;rounded=0;" edge="1" parent="WIyWlLk6GJQsqaUBKTNV-1">
          <mxGeometry width="50" height="50" relative="1" as="geometry">
            <mxPoint x="560" y="960" as="sourcePoint" />
            <mxPoint x="559.5" y="990" as="targetPoint" />
          </mxGeometry>
        </mxCell>
        <mxCell id="YX1euxC9QidEwxVQ3Ve3-28" value="" style="endArrow=classic;html=1;rounded=0;" edge="1" parent="WIyWlLk6GJQsqaUBKTNV-1">
          <mxGeometry width="50" height="50" relative="1" as="geometry">
            <mxPoint x="560" y="810" as="sourcePoint" />
            <mxPoint x="559.5" y="840" as="targetPoint" />
          </mxGeometry>
        </mxCell>
        <mxCell id="YX1euxC9QidEwxVQ3Ve3-29" value="" style="endArrow=classic;html=1;rounded=0;" edge="1" parent="WIyWlLk6GJQsqaUBKTNV-1">
          <mxGeometry width="50" height="50" relative="1" as="geometry">
            <mxPoint x="644" y="1049.5" as="sourcePoint" />
            <mxPoint x="683.5" y="1049.5" as="targetPoint" />
          </mxGeometry>
        </mxCell>
        <mxCell id="YX1euxC9QidEwxVQ3Ve3-30" value="&lt;span&gt;Base de datos&lt;/span&gt;" style="shape=cube;whiteSpace=wrap;html=1;boundedLbl=1;backgroundOutline=1;darkOpacity=0.05;darkOpacity2=0.1;" vertex="1" parent="WIyWlLk6GJQsqaUBKTNV-1">
          <mxGeometry x="700" y="1010" width="120" height="80" as="geometry" />
        </mxCell>
        <mxCell id="YX1euxC9QidEwxVQ3Ve3-31" value="" style="endArrow=classic;html=1;rounded=0;" edge="1" parent="WIyWlLk6GJQsqaUBKTNV-1">
          <mxGeometry width="50" height="50" relative="1" as="geometry">
            <mxPoint x="644" y="899.5" as="sourcePoint" />
            <mxPoint x="683.5" y="899.5" as="targetPoint" />
          </mxGeometry>
        </mxCell>
        <mxCell id="YX1euxC9QidEwxVQ3Ve3-32" value="&lt;span&gt;Base de datos&lt;/span&gt;" style="shape=cube;whiteSpace=wrap;html=1;boundedLbl=1;backgroundOutline=1;darkOpacity=0.05;darkOpacity2=0.1;" vertex="1" parent="WIyWlLk6GJQsqaUBKTNV-1">
          <mxGeometry x="700" y="860" width="120" height="80" as="geometry" />
        </mxCell>
        <mxCell id="YX1euxC9QidEwxVQ3Ve3-33" value="" style="endArrow=classic;html=1;rounded=0;" edge="1" parent="WIyWlLk6GJQsqaUBKTNV-1">
          <mxGeometry width="50" height="50" relative="1" as="geometry">
            <mxPoint x="644" y="759.5" as="sourcePoint" />
            <mxPoint x="683.5" y="759.5" as="targetPoint" />
          </mxGeometry>
        </mxCell>
        <mxCell id="YX1euxC9QidEwxVQ3Ve3-34" value="&lt;span&gt;Base de datos&lt;/span&gt;" style="shape=cube;whiteSpace=wrap;html=1;boundedLbl=1;backgroundOutline=1;darkOpacity=0.05;darkOpacity2=0.1;" vertex="1" parent="WIyWlLk6GJQsqaUBKTNV-1">
          <mxGeometry x="700" y="720" width="120" height="80" as="geometry" />
        </mxCell>
        <mxCell id="YX1euxC9QidEwxVQ3Ve3-35" value="" style="endArrow=classic;html=1;rounded=0;" edge="1" parent="WIyWlLk6GJQsqaUBKTNV-1">
          <mxGeometry width="50" height="50" relative="1" as="geometry">
            <mxPoint x="644" y="609.5" as="sourcePoint" />
            <mxPoint x="683.5" y="609.5" as="targetPoint" />
          </mxGeometry>
        </mxCell>
        <mxCell id="YX1euxC9QidEwxVQ3Ve3-36" value="&lt;span&gt;Base de datos&lt;/span&gt;" style="shape=cube;whiteSpace=wrap;html=1;boundedLbl=1;backgroundOutline=1;darkOpacity=0.05;darkOpacity2=0.1;" vertex="1" parent="WIyWlLk6GJQsqaUBKTNV-1">
          <mxGeometry x="700" y="570" width="120" height="80" as="geometry" />
        </mxCell>
        <mxCell id="YX1euxC9QidEwxVQ3Ve3-37" value="Carrito de compras" style="shape=cube;whiteSpace=wrap;html=1;boundedLbl=1;backgroundOutline=1;darkOpacity=0.05;darkOpacity2=0.1;" vertex="1" parent="WIyWlLk6GJQsqaUBKTNV-1">
          <mxGeometry x="940" y="380" width="120" height="80" as="geometry" />
        </mxCell>
        <mxCell id="YX1euxC9QidEwxVQ3Ve3-38" value="" style="shape=flexArrow;endArrow=classic;html=1;rounded=0;" edge="1" parent="WIyWlLk6GJQsqaUBKTNV-1">
          <mxGeometry width="50" height="50" relative="1" as="geometry">
            <mxPoint x="709.5" y="360" as="sourcePoint" />
            <mxPoint x="709.5" y="270" as="targetPoint" />
            <Array as="points">
              <mxPoint x="709.5" y="270" />
            </Array>
          </mxGeometry>
        </mxCell>
        <mxCell id="YX1euxC9QidEwxVQ3Ve3-39" value="&lt;span&gt;Reclamaciones&lt;/span&gt;" style="shape=cube;whiteSpace=wrap;html=1;boundedLbl=1;backgroundOutline=1;darkOpacity=0.05;darkOpacity2=0.1;" vertex="1" parent="WIyWlLk6GJQsqaUBKTNV-1">
          <mxGeometry x="650" y="170" width="120" height="80" as="geometry" />
        </mxCell>
        <mxCell id="YX1euxC9QidEwxVQ3Ve3-46" value="" style="endArrow=classic;html=1;rounded=0;" edge="1" parent="WIyWlLk6GJQsqaUBKTNV-1">
          <mxGeometry width="50" height="50" relative="1" as="geometry">
            <mxPoint x="1002.5" y="480" as="sourcePoint" />
            <mxPoint x="1002" y="510" as="targetPoint" />
          </mxGeometry>
        </mxCell>
        <mxCell id="YX1euxC9QidEwxVQ3Ve3-47" value="&lt;span&gt;Base de datos&lt;/span&gt;" style="shape=cube;whiteSpace=wrap;html=1;boundedLbl=1;backgroundOutline=1;darkOpacity=0.05;darkOpacity2=0.1;" vertex="1" parent="WIyWlLk6GJQsqaUBKTNV-1">
          <mxGeometry x="940" y="530" width="120" height="80" as="geometry" />
        </mxCell>
        <mxCell id="YX1euxC9QidEwxVQ3Ve3-48" value="" style="endArrow=classic;html=1;rounded=0;" edge="1" parent="WIyWlLk6GJQsqaUBKTNV-1">
          <mxGeometry width="50" height="50" relative="1" as="geometry">
            <mxPoint x="800" y="209.5" as="sourcePoint" />
            <mxPoint x="842" y="209.5" as="targetPoint" />
          </mxGeometry>
        </mxCell>
        <mxCell id="YX1euxC9QidEwxVQ3Ve3-49" value="&lt;span&gt;Base de datos&lt;/span&gt;" style="shape=cube;whiteSpace=wrap;html=1;boundedLbl=1;backgroundOutline=1;darkOpacity=0.05;darkOpacity2=0.1;" vertex="1" parent="WIyWlLk6GJQsqaUBKTNV-1">
          <mxGeometry x="860" y="180" width="120" height="80" as="geometry" />
        </mxCell>
      </root>
    </mxGraphModel>
  </diagram>
</mxfile>
